<svg width="59" height="43" viewBox="0 0 59 43" fill="none" xmlns="http://www.w3.org/2000/svg">
    <path
        d="M57.183 23.7684C57.7923 23.1667 58.1346 22.3508 58.1346 21.5001C58.1346 20.6493 57.7923 19.8334 57.183 19.2318L38.7977 1.08225C38.4979 0.775821 38.1393 0.531402 37.7428 0.363257C37.3463 0.195111 36.9198 0.106605 36.4883 0.102903C36.0568 0.0992015 35.6288 0.180379 35.2294 0.341697C34.83 0.503014 34.4671 0.741243 34.162 1.04248C33.8568 1.34372 33.6155 1.70194 33.4521 2.09623C33.2887 2.49052 33.2064 2.91299 33.2102 3.33899C33.2139 3.76499 33.3036 4.18599 33.4739 4.57742C33.6442 4.96885 33.8918 5.32287 34.2022 5.61883L47.0397 18.2917L4 18.2917C3.13804 18.2917 2.31139 18.6298 1.7019 19.2314C1.0924 19.8331 0.749995 20.6492 0.749995 21.5001C0.749995 22.351 1.0924 23.167 1.7019 23.7687C2.31139 24.3704 3.13804 24.7084 4 24.7084L47.0397 24.7084L34.2022 37.3813C33.6102 37.9864 33.2827 38.7969 33.2901 39.6381C33.2975 40.4793 33.6393 41.284 34.2418 41.8788C34.8444 42.4737 35.6596 42.8111 36.5117 42.8184C37.3638 42.8257 38.1848 42.5023 38.7977 41.9179L57.183 23.7684Z"
        fill="black"
    />
</svg>