<svg width="59" height="44" viewBox="0 0 59 44" fill="none" xmlns="http://www.w3.org/2000/svg">
    <path
        d="M1.81697 24.2684C1.20769 23.6667 0.865418 22.8508 0.865418 22.0001C0.865418 21.1493 1.20769 20.3334 1.81697 19.7318L20.2022 1.58225C20.502 1.27582 20.8606 1.0314 21.2572 0.863257C21.6537 0.695111 22.0801 0.606605 22.5117 0.602903C22.9432 0.599202 23.3712 0.680379 23.7706 0.841697C24.17 1.00301 24.5329 1.24124 24.838 1.54248C25.1432 1.84372 25.3845 2.20194 25.5479 2.59623C25.7113 2.99052 25.7935 3.41299 25.7898 3.83899C25.786 4.26499 25.6964 4.68599 25.5261 5.07742C25.3557 5.46885 25.1081 5.82287 24.7977 6.11883L11.9602 18.7917L55 18.7917C55.8619 18.7917 56.6886 19.1298 57.2981 19.7314C57.9076 20.3331 58.25 21.1492 58.25 22.0001C58.25 22.851 57.9076 23.667 57.2981 24.2687C56.6886 24.8704 55.8619 25.2084 55 25.2084L11.9602 25.2084L24.7977 37.8813C25.3897 38.4864 25.7173 39.2969 25.7099 40.1381C25.7025 40.9793 25.3607 41.784 24.7581 42.3788C24.1556 42.9737 23.3404 43.3111 22.4883 43.3184C21.6361 43.3257 20.8152 43.0023 20.2022 42.4179L1.81697 24.2684Z"
        fill="black"
    />
</svg>